<svg xmlns="http://www.w3.org/2000/svg" version="1.1" xmlns:xlink="http://www.w3.org/1999/xlink" xmlns:svgjs="http://svgjs.dev/svgjs" width="960" height="560" preserveAspectRatio="none" viewBox="0 0 960 560"><g mask="url(&quot;#SvgjsMask1121&quot;)" fill="none"><path d="M562,284.897C584.088,285.85,603.76,271.15,614.2,251.661C624.084,233.209,621.78,211.18,611.146,193.149C600.696,175.431,582.56,163.785,562,163.157C540.266,162.494,517.594,170.792,507.367,189.981C497.57,208.361,506.672,229.417,517.062,247.468C527.485,265.577,541.125,283.996,562,284.897" fill="rgba(51, 170, 221, 0.35)" class="triangle-float1"></path><path d="M813.907,297.299C852.643,295.425,889.986,281.485,911.097,248.953C934.284,213.222,944.71,166.484,922.304,130.258C900.69,95.313,854.939,89.659,813.907,91.82C777.278,93.749,744.399,110.485,723.633,140.721C699.15,176.368,677.337,221.755,698.937,259.219C720.549,296.704,770.689,299.39,813.907,297.299" fill="rgba(51, 170, 221, 0.35)" class="triangle-float2"></path><path d="M312.951,635.136C355.689,638.001,405.172,636.115,427.433,599.52C450.206,562.083,431.677,515.438,408.317,478.364C386.804,444.221,353.282,416.419,312.951,417.828C274.492,419.172,246.75,450.785,228.469,484.648C211.275,516.497,204.569,554.207,222.287,585.768C240.342,617.929,276.152,632.669,312.951,635.136" fill="rgba(51, 170, 221, 0.35)" class="triangle-float1"></path><path d="M604.391,490.166C655.441,489.693,709.851,477.975,735.79,434.004C762.05,389.488,748.451,334.649,722.5,289.952C696.681,245.482,655.802,206.642,604.391,207.691C554.302,208.713,519.903,251.517,494.348,294.608C468.074,338.91,443.449,391.591,468.708,436.479C494.274,481.912,552.261,490.649,604.391,490.166" fill="rgba(51, 170, 221, 0.35)" class="triangle-float3"></path><path d="M440.168,645.792C479.405,647.319,519.686,635.087,541.034,602.13C564.186,566.388,568.314,519.046,545.606,483.02C524.06,448.838,480.547,440.629,440.168,442.105C402.814,443.471,365.974,457.898,347.287,490.271C328.602,522.64,332.873,562.689,352.037,594.777C370.691,626.012,403.815,644.378,440.168,645.792" fill="rgba(51, 170, 221, 0.35)" class="triangle-float2"></path><path d="M792.654,222.083C816.656,221.94,837.233,207.156,849.749,186.676C862.909,165.142,869.435,138.518,857.221,116.434C844.684,93.765,818.559,83.31,792.654,83.44C766.996,83.569,741.751,94.698,729.2,117.077C716.884,139.037,721.348,165.813,734.37,187.362C746.906,208.107,768.416,222.227,792.654,222.083" fill="rgba(51, 170, 221, 0.35)" class="triangle-float3"></path><path d="M117.383,84.554C131.983,84.686,141.497,70.69,148.21,57.724C154.269,46.021,156.933,32.308,150.339,20.899C143.749,9.497,130.548,4.074,117.383,4.387C104.777,4.686,93.242,11.428,87.031,22.402C80.912,33.214,82.054,46.011,87.506,57.175C93.859,70.185,102.906,84.423,117.383,84.554" fill="rgba(51, 170, 221, 0.35)" class="triangle-float3"></path></g><defs><mask id="SvgjsMask1121"><rect width="960" height="560" fill="#ffffff"></rect></mask><style>
                @keyframes float1 {
                    0%{transform: translate(0, 0)}
                    50%{transform: translate(-10px, 0)}
                    100%{transform: translate(0, 0)}
                }

                .triangle-float1 {
                    animation: float1 5s infinite;
                }

                @keyframes float2 {
                    0%{transform: translate(0, 0)}
                    50%{transform: translate(-5px, -5px)}
                    100%{transform: translate(0, 0)}
                }

                .triangle-float2 {
                    animation: float2 4s infinite;
                }

                @keyframes float3 {
                    0%{transform: translate(0, 0)}
                    50%{transform: translate(0, -10px)}
                    100%{transform: translate(0, 0)}
                }

                .triangle-float3 {
                    animation: float3 6s infinite;
                }
            </style></defs></svg>